<svg width="283" height="261" viewBox="0 0 283 261" fill="none" xmlns="http://www.w3.org/2000/svg">
<path d="M0.175781 254.505L46.9533 252.764V123.625H0.175781V254.505Z" fill="#477900"/>
<path d="M112.028 105.714C117.906 107.275 123.968 106.541 129.158 103.555C134.301 100.708 137.837 96.1157 139.307 90.6048C140.868 84.451 139.628 77.5623 136 72.2351C132.923 67.6886 128.469 64.8872 123.417 64.2443C113.681 63.0961 95.4033 71.5003 85.4836 76.7816C92.4182 88.3086 103.899 103.647 112.028 105.714ZM214.531 77.2408C214.99 77.8379 215.541 78.4349 216.092 78.986C220.593 83.4865 227.16 85.8746 233.59 85.5072C239.055 85.1398 243.739 82.7058 246.816 78.6645C249.801 74.7609 251.776 67.7804 253.061 60.4325C254.393 53.0387 254.99 45.1857 255.266 39.5829C241.902 39.7207 222.843 41.8332 216.873 47.8033C212.602 52.1202 210.122 57.723 210.03 63.6472C209.939 67.6426 210.903 71.4084 212.832 74.715C213.383 75.6335 213.934 76.4601 214.531 77.2408ZM281.167 165.278C279.652 162.017 277.264 159.629 274.416 158.619C272.12 157.792 269.824 157.976 267.574 159.032L193.452 194.164C190.237 198.251 185.645 200.823 180.455 200.823H131.178C125.254 200.823 120.386 207.069 120.386 214.876C120.386 217.494 118.228 219.606 115.656 219.606C113.084 219.606 110.926 217.448 110.926 214.876C110.926 201.879 120.019 191.317 131.178 191.317H180.501C184.91 191.317 188.676 186.357 188.676 180.433C188.676 174.6 184.91 169.595 180.501 169.595H136.322C131.27 169.595 126.218 168.217 121.718 165.645L118.32 163.67C118.274 163.67 118.228 163.67 118.228 163.67L89.8005 147.23C85.254 144.612 80.3401 143.28 75.3803 143.28H56.5054V233.108H72.3033C77.5846 233.108 82.7282 234.302 87.5961 236.598C98.9394 242.017 127.458 255.106 146.976 259.836C152.901 261.26 159.238 260.157 164.703 256.667L276.483 185.484C282.315 181.856 284.474 172.534 281.167 165.278ZM156.942 53.0387C161.856 55.6105 167.596 55.9319 172.418 54.049C172.694 53.9572 172.969 53.8654 173.291 53.7276C177.378 51.9365 180.731 48.8137 183.211 44.4968C185.231 40.8688 186.104 36.8733 185.645 33.1076C184.91 28.0559 182.43 23.5553 178.113 19.6517C169.709 12.0742 157.814 4.95594 150.191 0.822754C150.191 6.74699 149.456 15.4726 146.839 26.5863C145.415 32.235 143.67 46.2419 156.942 53.0387Z" fill="#477900"/>
<path d="M179.72 61.0754C178.894 61.5347 178.067 62.0398 177.149 62.4072C175.128 63.3717 172.924 63.9687 170.765 64.3361C172.464 72.281 172.648 84.2672 169.433 94.0491C163.234 88.7678 156.666 85.9205 149.502 85.4613L147.895 94.9676C154.508 95.1054 160.478 98.0904 166.311 104.152V131.799V134.922C166.311 135.06 166.402 135.197 166.402 135.335C158.503 143.464 145.093 148.975 134.76 152.235L135.174 155.037H178.343C187.298 155.037 194.554 163.533 194.554 173.911C194.554 174.187 194.554 174.463 194.508 174.738L194.141 177.356L215.495 167.207L215.404 166.242C214.898 160.364 208.193 153.337 202.04 148.653L201.672 148.378H190.926C186.931 148.378 183.486 145.944 182.384 142.316C181.328 139.055 178.526 136.713 175.725 135.06C175.725 135.014 175.771 134.922 175.771 134.876V131.753V104.061C185.553 92.7632 195.794 86.196 207.642 83.7161C205.392 81.1444 203.739 78.2511 202.545 75.1283C194.83 77.2867 187.619 80.9147 180.823 86.196C182.108 76.9193 181.328 67.6426 179.72 61.0754Z" fill="#477900"/>
</svg>
