<svg width="2381" height="1240" viewBox="0 0 2381 1240" fill="none" xmlns="http://www.w3.org/2000/svg">
<path d="M0 1236H1251.06C1273.15 1236 1291.06 1218.09 1291.06 1196V1004.73C1291.06 982.635 1308.97 964.726 1331.06 964.726H1472.51C1494.6 964.726 1512.51 946.818 1512.51 924.726V776.022C1512.51 753.93 1530.42 736.022 1552.51 736.022H1647.26C1669.36 736.022 1687.26 718.113 1687.26 696.022V574.027C1687.26 551.936 1705.17 534.027 1727.26 534.027H1834.07C1856.16 534.027 1874.07 516.119 1874.07 494.027V401.247C1874.07 379.155 1891.98 361.247 1914.07 361.247H2020.12C2042.21 361.247 2060.12 343.338 2060.12 321.247V211.772C2060.12 189.681 2078.03 171.772 2100.12 171.772H2172.27C2194.37 171.772 2212.27 153.864 2212.27 131.772V44C2212.27 21.9086 2230.18 4 2252.27 4H2381" stroke="url(#paint0_linear_57_107)" stroke-width="7"/>
<defs>
<linearGradient id="paint0_linear_57_107" x1="2261.53" y1="3.99999" x2="796.624" y2="1198.81" gradientUnits="userSpaceOnUse">
<stop stop-color="#477900"/>
<stop offset="1" stop-color="#477900" stop-opacity="0"/>
</linearGradient>
</defs>
</svg>
